<svg xmlns="http://www.w3.org/2000/svg" width="24" height="24" viewBox="0 0 24 24" fill="none" stroke="currentColor" stroke-width="2" stroke-linecap="round" stroke-linejoin="round"><path d="M6 13.87A4 4 0 0 1 7.41 11h9.18a4 4 0 0 1 1.41 2.87L18 22H6l-.59-8.13Z"/><path d="M6 12a4 4 0 0 1 4-4h4a4 4 0 0 1 4 4v0"/><path d="M17.5 8.5a1.5 1.5 0 0 1-3 0v-1a1.5 1.5 0 0 1 3 0v1Z"/><path d="M6.5 8.5a1.5 1.5 0 0 0 3 0v-1a1.5 1.5 0 0 0-3 0v1Z"/><path d="M12 6.5a1.5 1.5 0 0 1-3 0v-1.5a1.5 1.5 0 0 1 3 0V5Z"/></svg>